<?xml version="1.0" standalone="no"?>
<!DOCTYPE svg PUBLIC "-//W3C//DTD SVG 20010904//EN"
 "http://www.w3.org/TR/2001/REC-SVG-20010904/DTD/svg10.dtd">
<svg version="1.0" xmlns="http://www.w3.org/2000/svg"
 width="256.000000pt" height="257.000000pt" viewBox="0 0 256.000000 257.000000"
 preserveAspectRatio="xMidYMid meet">
<metadata>
Created by potrace 1.16, written by Peter Selinger 2001-2019
</metadata>
<g transform="translate(0.000000,257.000000) scale(0.100000,-0.100000)"
fill="#000000" stroke="none">
<path d="M1044 2441 c-33 -20 -48 -53 -60 -127 -3 -23 -9 -45 -13 -51 -3 -5
-40 -21 -82 -36 -92 -34 -189 -89 -275 -158 l-65 -51 -58 21 c-118 43 -133 34
-248 -167 -117 -202 -118 -211 -34 -297 l60 -60 -14 -65 c-8 -36 -14 -112 -14
-170 0 -58 6 -134 14 -170 l14 -65 -60 -60 c-84 -86 -83 -96 32 -297 115 -200
131 -210 249 -167 l58 21 88 -67 c88 -66 210 -131 292 -156 29 -8 44 -19 47
-33 3 -12 10 -43 15 -70 24 -110 37 -116 270 -116 237 0 255 9 275 141 4 25
10 50 13 55 4 6 41 22 83 37 92 34 189 89 275 158 l65 51 58 -21 c118 -43 133
-34 248 167 118 202 119 213 33 298 l-59 59 14 65 c18 83 18 256 0 340 l-14
65 60 60 c84 86 83 96 -32 297 -116 200 -131 210 -250 167 l-58 -21 -65 51
c-86 69 -183 124 -275 158 -42 15 -79 31 -83 37 -3 5 -9 30 -13 55 -20 132
-38 141 -277 141 -163 0 -186 -2 -214 -19z m397 -169 c9 -45 19 -85 22 -88 3
-4 45 -19 94 -36 48 -16 116 -45 150 -64 62 -34 195 -135 221 -166 12 -15 21
-14 97 12 l84 29 82 -141 81 -141 -67 -61 -67 -61 18 -65 c26 -92 26 -328 0
-420 l-18 -65 67 -61 67 -61 -81 -141 -82 -141 -84 29 c-76 26 -85 27 -97 12
-26 -31 -159 -132 -221 -166 -34 -19 -102 -48 -150 -64 -49 -17 -91 -32 -94
-36 -3 -3 -13 -43 -22 -88 l-17 -83 -164 0 -164 0 -17 83 c-9 46 -20 87 -25
91 -5 4 -36 15 -69 25 -128 39 -304 144 -383 229 l-24 25 -84 -28 -83 -29 -82
141 -81 141 67 61 67 61 -18 65 c-26 92 -26 328 0 420 l18 65 -67 61 -67 61
81 141 82 141 83 -29 84 -28 24 25 c80 86 246 185 382 228 38 13 72 29 76 36
4 8 13 46 20 84 7 39 15 73 17 78 2 4 77 6 166 5 l161 -3 17 -83z"/>
<path d="M796 1627 c-25 -19 -209 -621 -200 -659 12 -59 88 -59 99 0 3 15 11
45 18 67 l12 40 98 3 98 3 14 -35 c8 -20 15 -46 15 -60 0 -13 9 -34 19 -47 16
-20 23 -22 47 -14 57 20 54 41 -50 380 -104 338 -117 361 -170 322z m63 -326
c17 -55 31 -104 31 -110 0 -7 -25 -11 -65 -11 -40 0 -65 4 -65 11 0 14 61 209
65 209 2 0 17 -45 34 -99z"/>
<path d="M1176 1625 c-14 -15 -16 -53 -16 -345 0 -285 2 -331 16 -344 21 -21
47 -20 67 2 14 15 17 40 17 130 l0 112 99 0 c85 0 102 3 131 23 64 43 74 67
78 183 5 127 -11 180 -66 222 -34 26 -41 27 -172 30 -117 3 -140 1 -154 -13z
m258 -95 c26 -9 26 -11 26 -118 0 -71 -4 -112 -12 -120 -8 -8 -45 -12 -100
-12 l-88 0 0 130 0 130 74 0 c41 0 86 -4 100 -10z"/>
<path d="M1685 1624 c-22 -23 -15 -67 13 -79 22 -10 22 -10 22 -265 0 -255 0
-255 -22 -265 -28 -12 -35 -56 -13 -79 19 -19 134 -23 166 -6 29 16 25 65 -6
86 l-25 16 0 248 0 248 25 16 c31 21 35 70 6 86 -32 17 -147 13 -166 -6z"/>
</g>
</svg>
